# xmcd
# Copyright (C) 1995-1998 Ti Kan
#
# Track frame offsets:
#       150
#       13674
#       28433
#       39711
#       54721
#       68647
#       83928
#       99046
#       111755
#       127474
#       140916
#       154515
#       167693
#       183448
#       198975
#       213760
#
# Disc length: 3019 seconds
#
# Revision: 0
# Processed by: cddbd v1.5.1PL2 Copyright (c) Steve Scherf et al.
# Submitted via: CD-Transfer v1.0
#
DISCID=e40bc910
DTITLE=Edlseer - 
DYEAR=06
DGENRE=
TTITLE0=Ein Herz Aus Volksmusik - Neu
TTITLE1=Steirer Samma - Neu
TTITLE2=Beim Alten Pflug - Neu
TTITLE3=Du Bist Leben Für Mi - Neu
TTITLE4=Um Die Häuser Zieh`n - Neu
TTITLE5=Herzilein, Lass Dass Sein - Neu
TTITLE6=Alphornklang - Neu
TTITLE7=Jaba Daba - Neu
TTITLE8=Schlag Ein - Neu
TTITLE9=Typisch Steirisch - Neu
TTITLE10=Bozner Bergsteiger Marsch - Neu
TTITLE11=Wenn I A Maderl Seh - Neu
TTITLE12=Hey Girl - Neu
TTITLE13=Gipfelwind Und Heimaterde - Neu
TTITLE14=Edlseer-Cowboys - Neu
TTITLE15=A Musikant Im Trachteng`wand - Neu
EXTD=
EXTT0=
EXTT1=
EXTT2=
EXTT3=
EXTT4=
EXTT5=
EXTT6=
EXTT7=
EXTT8=
EXTT9=
EXTT10=
EXTT11=
EXTT12=
EXTT13=
EXTT14=
EXTT15=
PLAYORDER=
